# xmcd
#
# Track frame offsets: 
#        150
#        17098
#        35980
#        56804
#        79568
#        93820
#        108346
#        123402
#        140176
#        156185
#        173318
#        187636
#
# Disc length: 3238 seconds
#
# Revision: 0
# Processed by: cddbd v1.5.2PL0 Copyright (c) Steve Scherf et al.
# Submitted via: ExactAudioCopy v0.99pb5
#
DISCID=920ca40c
DTITLE=The Company - Awaking Under Dogs
DYEAR=1900
DGENRE=Thrash Metal
TTITLE0=Soul Cold Brother
TTITLE1=My Opinion
TTITLE2=Mindwar
TTITLE3=Riding On Business
TTITLE4=Jailhouse Webcam
TTITLE5=You Spin Me Round (Like A Record)
TTITLE6=Naked Behind The Wall
TTITLE7=Senses...
TTITLE8=Texas Chain Law Massacre
TTITLE9=U.-Army
TTITLE10=Sofa Rebels
TTITLE11=The Spirit of Paul Aner
EXTD=
EXTT0=
EXTT1=
EXTT2=
EXTT3=
EXTT4=
EXTT5=
EXTT6=
EXTT7=
EXTT8=
EXTT9=
EXTT10=
EXTT11=
PLAYORDER=
